<svg xmlns="http://www.w3.org/2000/svg" width="48" height="48"><g data-name="Group 105"><g fill="#fff" stroke="#000" data-name="Ellipse 1"><circle cx="24" cy="24" r="24" stroke="none"/><circle cx="24" cy="24" r="23.5" fill="none"/></g><g data-name="Group 31"><path fill="none" stroke="#000" d="M23.999 34.174c-.622-.969-1.223-1.9-1.822-2.837-1.47-2.294-2.956-4.577-4.4-6.884a6.452 6.452 0 0 1-.307-6.431 7.217 7.217 0 0 1 13.421.865 6.373 6.373 0 0 1-.634 5.539c-1.3 2.055-2.62 4.1-3.932 6.144q-1.081 1.687-2.165 3.372c-.047.068-.091.133-.161.232Zm3.479-13.1a3.475 3.475 0 1 0-3.487 3.476 3.471 3.471 0 0 0 3.487-3.479Z" data-name="Path 39"/></g></g></svg>